<?xml version="1.0" encoding="utf-8"?>
<!-- Generator: Adobe Illustrator 23.0.3, SVG Export Plug-In . SVG Version: 6.00 Build 0)  -->
<svg version="1.1" id="Warstwa_1" xmlns="http://www.w3.org/2000/svg" xmlns:xlink="http://www.w3.org/1999/xlink" x="0px" y="0px"
	 viewBox="0 0 24.58 39.63" style="enable-background:new 0 0 24.58 39.63;" xml:space="preserve">
<style type="text/css">
	.st0{fill:#3C3C3B;}
</style>
<g>
	<path class="st0" d="M12.29,39.63C5.51,39.63,0,34.12,0,27.34V12.29C0,5.51,5.51,0,12.29,0c6.78,0,12.29,5.51,12.29,12.29v15.05
		C24.58,34.12,19.06,39.63,12.29,39.63z M12.29,2C6.62,2,2,6.62,2,12.29v15.05c0,5.67,4.62,10.29,10.29,10.29
		s10.29-4.62,10.29-10.29V12.29C22.58,6.62,17.96,2,12.29,2z"/>
</g>
<g>
	<path class="st0" d="M12.29,17.6c-0.83,0-1.5-0.67-1.5-1.5V9.26c0-0.83,0.67-1.5,1.5-1.5s1.5,0.67,1.5,1.5v6.84
		C13.79,16.93,13.12,17.6,12.29,17.6z"/>
</g>
</svg>
